<mxfile host="app.diagrams.net" modified="2023-05-03T05:13:58.109Z" agent="Mozilla/5.0 (Windows NT 10.0; Win64; x64) AppleWebKit/537.36 (KHTML, like Gecko) Chrome/112.0.0.0 Safari/537.36" etag="ZBM06CRN5zYziA4pb-0Y" version="21.2.6" type="device" pages="2">
  <diagram name="페이지-1" id="ipu7WTd5g4bWLd0b_Ykn">
    <mxGraphModel dx="7997" dy="3980" grid="1" gridSize="10" guides="1" tooltips="1" connect="1" arrows="1" fold="1" page="1" pageScale="1" pageWidth="827" pageHeight="1169" math="0" shadow="0">
      <root>
        <mxCell id="0" />
        <mxCell id="1" parent="0" />
        <mxCell id="fF4PlxVB7mR0vVxpyW9c-1" value="" style="rounded=0;whiteSpace=wrap;html=1;align=left;" vertex="1" parent="1">
          <mxGeometry x="-650" y="40" width="1440" height="3200" as="geometry" />
        </mxCell>
        <mxCell id="fF4PlxVB7mR0vVxpyW9c-10" value="&lt;font style=&quot;font-size: 36px;&quot;&gt;email input&lt;/font&gt;" style="rounded=1;whiteSpace=wrap;html=1;" vertex="1" parent="1">
          <mxGeometry x="-460" y="585" width="1020" height="145" as="geometry" />
        </mxCell>
        <mxCell id="fF4PlxVB7mR0vVxpyW9c-11" value="&lt;font style=&quot;font-size: 36px;&quot;&gt;password input&lt;/font&gt;" style="rounded=1;whiteSpace=wrap;html=1;" vertex="1" parent="1">
          <mxGeometry x="-450" y="910" width="1020" height="145" as="geometry" />
        </mxCell>
        <mxCell id="fF4PlxVB7mR0vVxpyW9c-12" value="" style="rounded=1;whiteSpace=wrap;html=1;" vertex="1" parent="1">
          <mxGeometry x="-460" y="1290" width="1020" height="100" as="geometry" />
        </mxCell>
        <mxCell id="fF4PlxVB7mR0vVxpyW9c-13" value="&lt;font style=&quot;font-size: 36px;&quot;&gt;email&lt;/font&gt;" style="text;html=1;strokeColor=none;fillColor=none;align=center;verticalAlign=middle;whiteSpace=wrap;rounded=0;" vertex="1" parent="1">
          <mxGeometry x="-480" y="495" width="190" height="90" as="geometry" />
        </mxCell>
        <mxCell id="fF4PlxVB7mR0vVxpyW9c-14" value="&lt;span style=&quot;font-size: 36px;&quot;&gt;password&lt;/span&gt;" style="text;html=1;strokeColor=none;fillColor=none;align=center;verticalAlign=middle;whiteSpace=wrap;rounded=0;" vertex="1" parent="1">
          <mxGeometry x="-440" y="820" width="190" height="90" as="geometry" />
        </mxCell>
        <mxCell id="fF4PlxVB7mR0vVxpyW9c-16" value="&lt;font style=&quot;font-size: 36px;&quot;&gt;회원가입&lt;/font&gt;" style="text;html=1;strokeColor=none;fillColor=none;align=center;verticalAlign=middle;whiteSpace=wrap;rounded=0;" vertex="1" parent="1">
          <mxGeometry x="300" y="1070" width="270" height="70" as="geometry" />
        </mxCell>
        <mxCell id="fF4PlxVB7mR0vVxpyW9c-18" value="&lt;span style=&quot;font-size: 36px;&quot;&gt;사용자 정보를 확인하세요.&lt;/span&gt;" style="text;html=1;strokeColor=none;fillColor=none;align=left;verticalAlign=middle;whiteSpace=wrap;rounded=0;" vertex="1" parent="1">
          <mxGeometry x="-450" y="750" width="1000" height="50" as="geometry" />
        </mxCell>
        <mxCell id="fF4PlxVB7mR0vVxpyW9c-19" value="Text" style="text;html=1;align=center;verticalAlign=middle;resizable=0;points=[];autosize=1;strokeColor=none;fillColor=none;" vertex="1" parent="1">
          <mxGeometry x="895" y="188" width="50" height="30" as="geometry" />
        </mxCell>
      </root>
    </mxGraphModel>
  </diagram>
  <diagram id="M09Fh-j4gJdEV0Xoxltt" name="페이지-2">
    <mxGraphModel dx="1434" dy="796" grid="1" gridSize="10" guides="1" tooltips="1" connect="1" arrows="1" fold="1" page="1" pageScale="1" pageWidth="827" pageHeight="1169" math="0" shadow="0">
      <root>
        <mxCell id="0" />
        <mxCell id="1" parent="0" />
      </root>
    </mxGraphModel>
  </diagram>
</mxfile>
